/* XPM */
static char *result[] = {
/* columns rows colors chars-per-pixel */
"64 64 200 2 ",
"   c #050505",
".  c #090704",
"X  c #0B0907",
"o  c #050808",
"O  c #0C0C0B",
"+  c #120F0C",
"@  c #0F100E",
"#  c #11110E",
"$  c #1C150E",
"%  c #0D0F11",
"&  c #0F1113",
"*  c #141513",
"=  c #191713",
"-  c #171815",
";  c #1A1A16",
":  c #161818",
">  c #1C1C1A",
",  c #241D15",
"<  c #201F1A",
"1  c #1F201D",
"2  c #23221E",
"3  c #2A251D",
"4  c #31291E",
"5  c #1D1F20",
"6  c #1F2121",
"7  c #252521",
"8  c #292721",
"9  c #272924",
"0  c #2B2A24",
"q  c #2C2D2B",
"w  c #322B22",
"e  c #302F29",
"r  c #2F312D",
"t  c #32322D",
"y  c #3B352C",
"u  c #343532",
"i  c #363836",
"p  c #3B3A34",
"a  c #383837",
"s  c #3D3D3A",
"d  c #43372C",
"f  c #4A3A2D",
"g  c #453E35",
"h  c #4C3E32",
"j  c #413F39",
"k  c #563938",
"l  c #603F3D",
"z  c #3F4038",
"x  c #4A4136",
"c  c #42433C",
"v  c #564535",
"b  c #594C37",
"n  c #53453A",
"m  c #5C4A3C",
"M  c #63483A",
"N  c #6C533E",
"B  c #383D40",
"V  c #3C4141",
"C  c #454542",
"Z  c #4A4A45",
"A  c #484A47",
"S  c #524C44",
"D  c #5E5344",
"F  c #52524C",
"G  c #4B5153",
"H  c #565651",
"J  c #575852",
"K  c #5A5954",
"L  c #575B59",
"P  c #5D5D5A",
"I  c #6A4E41",
"U  c #6D5546",
"Y  c #655649",
"T  c #725943",
"R  c #795D44",
"E  c #705C50",
"W  c #7C5E52",
"Q  c #5E605A",
"!  c #7C634D",
"~  c #63645C",
"^  c #7C6552",
"/  c #7C6A58",
"(  c #5F6562",
")  c #656664",
"_  c #6B6C65",
"`  c #666B6C",
"'  c #6D6E6A",
"]  c #706F6E",
"[  c #737267",
"{  c #72716E",
"}  c #757673",
"|  c #777976",
" . c #787874",
".. c #757B7A",
"X. c #7B7C7B",
"o. c #80574E",
"O. c #82644B",
"+. c #87684D",
"@. c #8C6A4E",
"#. c #846653",
"$. c #866A53",
"%. c #8C6C52",
"&. c #87675A",
"*. c #8D6D59",
"=. c #916F57",
"-. c #85715E",
";. c #8C705C",
":. c #96755A",
">. c #94735C",
",. c #916A60",
"<. c #8A7563",
"1. c #8D7B64",
"2. c #8B7D69",
"3. c #937562",
"4. c #947A63",
"5. c #9D7B64",
"6. c #947C69",
"7. c #9B7D6A",
"8. c #927C72",
"9. c #A07F67",
"0. c #A17F6A",
"q. c #7E807C",
"w. c #8E8169",
"e. c #95806C",
"r. c #9C816D",
"t. c #9B896F",
"y. c #83837D",
"u. c #9D8472",
"i. c #9B8D75",
"p. c #A3836D",
"a. c #A9886F",
"s. c #A48674",
"d. c #A68875",
"f. c #777D80",
"g. c #7D8382",
"h. c #7F8788",
"j. c #838683",
"k. c #848887",
"l. c #8C8D84",
"z. c #80878A",
"x. c #858B8B",
"c. c #898E8C",
"v. c #988F81",
"b. c #919083",
"n. c #95958C",
"m. c #9A968A",
"M. c #97998F",
"N. c #9B9A8D",
"B. c #8A9091",
"V. c #939691",
"C. c #979A94",
"Z. c #9B9C94",
"A. c #9D9D9B",
"S. c #A58F8A",
"D. c #A19E8F",
"F. c #A49E96",
"G. c #9FA197",
"H. c #9FA29C",
"J. c #A4A293",
"K. c #A4A39C",
"L. c #AAA99A",
"P. c #B6A79D",
"I. c #A3A4A1",
"U. c #A4A8A4",
"Y. c #ADACA3",
"T. c #ACADAA",
"R. c #B5AEA5",
"E. c #AFB2AE",
"W. c #B3B2A4",
"Q. c #B8B7AA",
"!. c #B3B3B2",
"~. c #B7BBB7",
"^. c #B9B9B3",
"/. c #BCBCB9",
"(. c #C5B9B4",
"). c #C4C4BB",
"_. c #CBC7C3",
"`. c #CDCDCC",
"'. c #CFD1CA",
"]. c #D4D3C9",
"[. c #D3D3D2",
"{. c #DBDAD4",
"}. c #DADBDA",
"|. c #E3DCD8",
" X c #DFE0DF",
".X c #FFFFFFFF",
"XX c #FFFFFFFF",
"oX c #FFFFFFFF",
"OX c #FFFFFFFF",
"+X c #FFFFFFFF",
"@X c #FFFFFFFF",
"#X c #FFFFFFFF",
"$X c #FFFFFFFF",
"%X c #FFFFFFFF",
"&X c #FFFFFFFF",
"*X c #FFFFFFFF",
"=X c #FFFFFFFF",
"-X c #FFFFFFFF",
";X c #FFFFFFFF",
":X c #FFFFFFFF",
/* pixels */
":X*X:X*X;X:X:X:X*X:X*X%X*X:X-X:X;X:X:X:X=X*X:X-X:X:X:X;X-X-X;X:X:X*X:X*X;X*X:X:X*X:X*X*X*X:X-X:X:X:X:X:X=X*X:X-X:X:X:X;X:X%X&X:X",
"-X-X:X:X*X:X;X-X:X;X:X*X:X;X:X:X:X:X:X:X:X:X:X-X:X*X:X:X:X;X:X:X-X:X:X:X*X:X;X-X*X:X:X:X:X;X*X:X:X:X:X:X:X:X:X-X&X:X:X;X:X:X:X:X",
":X:X:X:X:X:X=X:X-X:X:X:X:X%X:X-X;X:X:X:X:X:X;X-X;X;X:X:X;X:X%X;X:X:X:X:X:X:X-X:X-X:X:X:X:X%X:X-X-X:X:X:X:X-X:X:X:X;X:X:X:X:X%X;X",
":X*X:X%X;X:X:X:X:X:X%X*X:X:X:X:X:X:X;X:X:X:X:X-X:X-X-X-X:X:X:X;X:X*X:X%X;X:X:X:X:X:X%X*X:X:X:X:X:X:X;X:X;X:X:X-X:X-X-X-X:X:X:X:X",
":X:X:X:X:X:X:X:X;X:X:X:X:X:X:X*X:X-X:X-X:X:X:X:X:X*X*X;X:X;X-X:X:X-X:X-X*X:X:X-X:X:X:X:X:X:X-X:X:X-X:X-X;X:X:X:X*X*X;X;X:X;X:X:X",
";X*X:X:X;X:X:X:X-X:X-X:X;X:X:X:X;X;X:X:X:X:X:X;X*X;X:X:X:X*X%X%X:X*X-X%X;X:X-X;X-X%X-X-X:X:X:X:X:X:X*X:X-X:X;X:X:X;X:X:X:X*X:X:X",
";X:X-X:X;X:X:X:X*X:X*X*X;X*X-X%X-X:X:X;X:X:X:X:X*X:X:X:X:X:X:X&X;X:X%X%X-X:X&X&X%X%X*X*X:X*X-X-X-X:X:X;X:X:X*X:X*X:X:X:X:X:X-X:X",
":X-X;X:X-X*X:X:X:X:X:X-X:X:X;X:X:X:X:X*X:X*X:X:X:X:X:X%X:X*X&X&X}.!.V.f.) F c C k.[.+X:X:X-X-X-X:X:X:X:X:X*X:X:X:X:X:X&X:X*X;X:X",
":X:X:X:X:X;X:X:X-X:X*X:X-X:X:X:X:X:X:X:X:X;X:X;X&X=X:X-X:X:X$X`._ c s r 8 0 6 < 8 j I.+X-X-X-X-X:X:X:X:X:X;X:X=X*X=X:X:X:X-X:X-X",
":X*X:X:X:X:X:X:X;X*X:X;X:X;X&X:X%X:X:X:X:X:X:X*X:X*X-X-X*X#XE.C q 2 2 * & q 6 = > 7 y V.#X-X-X-X*X:X:X:X:X:X:X*X:X*X:X:X&X-X:X:X",
"*X:X*X:X:X-X:X*X:X:X-X:X:X:X-X:X:X:X:X=X:X;X-X:X:X:X-X-X$XK.t 2 - * # @ * s r u u & < t Y.$X-X-X;X:X:X;X:X;X-X;X:X:X:X*X:X*X:X:X",
":X:X;X-X;X:X:X=X;X:X:X;X:X:X:X:X:X:X*X:X;X:X:X;X-X:X%X&X~.t ; - * + O @ : B u q t + % < C [.-X-X:X:X:X:X;X:X:X;X-X:X:X:X:X*X;X*X",
"*X:X:X:X:X:X;X:X:X:X-X:X*X;X:X-X:X;X:X:X:X:X:X:X=X*X:X[.c 1 * # O O X X + 7 7 q q X X * 7 ' #X-X:X-X:X*X:X:X:X:X:X*X:X;X:X:X:X:X",
"-X:X:X:X*X;X-X*X-X:X*X:X:X:X:X:X;X:X:X;X:X-X*X;X:X:X+X~ 2 # @ X .   X .       . % X o O = y /.-X;X:X:X;X:X:X:X;X:X:X-X:X:X*X-X:X",
"*X:X;X:X:X:X*X:X:X:X*X:X*X;X:X:X:X:X:X-X:X:X:X:X:X-XT.i = O . + $ $ , +     . . X   o X + 2 } -X:X:X:X-X:X:X:X:X;X;X:X:X:X;X:X;X",
":X:X:X:X:X=X:X&X:X:X%X:X*X;X*X;X;X-X:X:X*X%X:X-X-X-X_ 7 + # 3 3 , w , = $ . $ , , , X X % = Z #X;X-X:X:X*X-X-X-X:X:X:X:X-X:X:X:X",
"-X*X:X:X:X-X;X:X*X:X%X:X:X;X*X;X:X*X:X-X:X:X:X:X:XOXp * * m D x n y , , , , 4 3 w , , . o = j XX:X*X;X-X:X:X:X:X*X:X:X-X:X*X:X:X",
"=X:X:X:X:X:X*X;X:X:X:X;X:X-X:X:X:X&X:X:X-X*X:X:X:X/.2 X m 1.-.! ^ M k g 4 d w , 3 3 , $ . * y `.:X*X:X:X-X*X:X:X;X:X:X:X:X-X*X:X",
":X*X:X-X:X;X:X:X:X-X:X%X:X:X;X:X*X:X:X:X:X:X:X:X:XA.O 3 w.w.O.m f y m M k v d f n h 4 $ + . e ^.-X:X:X:X:X:X-X-X:X:X-X:X;X:X:X*X",
":X:X:X*X:X:X-X:X:X:X;X:X;X:X=X:X:X:X:X:X:X*X:X:X#Xy.= S i.e.:.4.#.T U #.+.N m D U T M f = X 0 T.:X:X:X:X:X:X:X*X*X:X:X:X:X:X;X-X",
":X:X*X:X:X:X:X:X:X-X:X:X:X:X:X:X-X:X:X*X:X:X:X:X(.8.h / t.7.0.0.7.5.>.:.:.O.O.M h x N R v . 3 _.-X:X:X*X:X:X:X:X;X:X:X:X:X:X:X:X",
";X:X:X;X*X*X:X-X;X:X:X%X:X:X:X:X:X:X:X-X:X:X;X-XS.8.Y <.6.7.s.d.p.p.5.5.5.@.=.:.*.#.N +.R X w OX:X:X:X%X:X:X:X-X:X:X:X-X:X-X*X*X",
"*X:X:X-X:X-X:X:X:X:X;X:X:X;X:X;X-X:X:X:X:X:X:X:XP.8.-.<.3.7.s.d.0.3.>.0.9.@.:.a.a.5.:.=.R + C :X-X:X:X:X:X:X:X:X:X:X*X:X:X:X:X:X",
";X:X;X:X:X:X:X:X:X:X:X:X:X:X-X:X:X:X*X:X-X%X:X:X(.<.2.2.6.7.d.p.5.&.#.7.>.@.:.a.a.9.:.@.T , j.:X:X:X*X:X-X:X:X:X-X;X*X-X:X;X:X;X",
":X:X*X:X*X=X:X:X:X:X:X:X:X:X:X;X:X:X:X:X;X:X-X=X_.v.6.e.e.r.s.s.0.#.U W I R >.a.p.5.=.+.M n R.:X:X:X;X:X:X:X:X:X:X:X;X:X*X:X:X*X",
"=X:X-X&X:X:X*X:X-X*X:X:X*X:X:X:X*X:X*X-X-X-X-X:X.Xm.e.6.r.r.d.r.7.5.5.&.#.W 5.a.p.:.@.O.N E F.:X*X:X:X:X:X:X-X:X:X&X:X:X:X:X;X:X",
":X*X:X-X:X:X:X:X:X:X;X:X:X:X:X;X:X:X=X:X=X=X=X=XoXy.2.2.r.u.u.6.&.E o.#.*.>.0.0.5.>.$.! #.u._.:X:X:X=X:X-X;X*X:X:X-X:X-X*X:X:X:X",
":X-X:X*X:X:X;X:X:X*X%X:X:X:X:X:X:X:X*X:X-X=X$X$XoXj.~ <.r.u.p.*.M k k I I O.5.0.5.=.+.#.u.P.$X:X:X:X&X*X:X:X:X:X:X*X:X:X:X:X:X-X",
"*X:X:X:X-X:X:X:X*X:X:X:X&X:X:X;X:X:X:X:X:X$X}.}.`.P i H -.7.r.p.7.,.&.o.l I 3.9.:.=.$.*.P.|.:X;X:X:X:X:X:X-X:X:X:X:X:X:X:X:X;X*X",
":X&X:X:X:X:X:X*X:X:X:X-X:X:X:X:X%X$XOXoXoX[.F.c.) u 9 : g / 6.p.7.3.&.$.%.>.5.5.=.%.+.i.{.&X:X:X:X:X:X-X:X:X-X:X&X:X;X*X-X:X:X:X",
":X:X:X-X:X&X-X:X:X*X:X:X-X$X+XOX X_.U.K.n.y.` K s 6 5 : * > n / <.p.5.4.:.:.5.>.+.T v Y.*X*X:X:X:X:X*X:X:X:X:X*X:X:X:X:X:X;X%X:X",
":X;X&X:X:X-X*X:X:X=X+XOX}.`.!.A.X.Q F F F Z s p 9 : : : : * : > g ;.r.4.;.;.$.T b 4 < _ OX%X:X:X:X*X:X:X:X:X;X;X:X-X-X&X:X:X:X:X",
":X*X*X*X;X;X;X&X$XoX/.F. .F C p q 0 9 r t t 0 * : 1 & - * & : * @ c Y g h x d 3 * O = s I.|.$X%X-X:X:X-X=X&X:X-X:X:X:X;X:X-X&X:X",
":X:X:X*X*X;X;X&XoXA.} J c p e 2 > > - ; 1 2 3 * O 1 * - : & : * O c : O O O O O X O * < P I.[.-X%X-X:X*X:X:X*X-X:X:X:X:X:X*X:X:X",
":X:X&X*X*X&X@XoXT.} J z t e 0 9 2 2 = - - 1 1 1 & - - & 1 : * * * s X O X O @ O O + O + a c.I.-X:X-X:X:X:X-X:X:X:X;X:X:X;X:X%X;X",
":X*X&X$XOX{.).V.L z t 9 3 9 9 3 2 2 2 1 - - = 1 1 ; ; & - & & @ 9 u X O & O X o   . O & > Z ] +X:X:X:X:X:X:X;X-X*X-X-X=X:X:X:X:X",
":X-X@X{.).Q.W.Q a q 7 > < 9 9 9 9 3 3 2 1 - ; - 1 1 # @ & & # O s 9 O & O X O o   o + & > r H !.+X-X-X-X:X;X:X:X:X*X:X;X:X:X:X:X",
"&X+X].^.W.L.H.z 0 7 7 2 7 8 3 7 2 2 1 2 1 ; ; - & * - & & @ 1 - i : + O O O % O O + * = > 8 a ) !.OX-X=X-X:X:X:X:X;X*X:X:X*X:X:X",
"@X'.Q.Y.K.K.q.q 7 2 3 7 8 7 < < 1 ; ; ; ; 1 1 ; ; ; ; @ @ @ 1 1 6 & * * & O X O & = = = = < 8 j ' !.oX$X:X-X%X;X*X:X:X:X:X:X-X;X",
"[.E.W.K.G.Z.~ 9 2 2 2 2 < > : * * = ; 1 ; ; ; 1 > 1 ; * @ @ O r > O O & O O + * * : = = : : < 0 C X.!.{.&X=X:X:X:X:X:X&X:X*X;X:X",
"~.U.U.G.C.C.A 7 : > < < : = * * = - ; 2 > ; ; ; ; 1 ; - # @ @ z & O + & * * = = = ; = = = = : 7 q F  .F.{.=X-X-X*X=X:X;X:X-X:X-X",
"U.I.C.C.C.C.i : * : : : * * = > 1 > 1 2 1 2 ; ; ; ; ; - # # # z + = : = - - = ; : - = : = = = > 7 u F ] I.XX-X-X:X*X:X:X*X:X:X-X",
"U.H.B.n.C.C.r @ * = > * * : < 7 2 2 2 2 2 2 2 2 1 ; ; 1 - # 1 z * : * = - ; - > > = : > = : = > < 0 p H { F.[.-X:X-X:X:X:X*X:X:X",
"H.V.z.B.Z.B.1 & > : : * > 7 8 8 9 3 2 2 3 3 2 2 3 2 3 2 , - 1 0 = : * = ; - ; - = ; : = > : > > < 7 0 s Z ` A.oX&X-X:X*X:X:X&X*X",
"A.c.j.c.C.g.: - > > : 1 1 2 2 9 9 3 2 9 3 3 9 2 3 3 3 2 2 1 2 3 = : - * = - * - : ; : > > > < < < 6 7 0 u F  .^.$X*X:X:X:X:X:X:X",
"C.V.k.k.B.X.q : : : : : 1 2 1 2 1 2 2 2 2 2 9 3 3 3 2 2 2 2 0 r > 3 1 = ; * , 2 < < > > > > 6 6 7 7 3 6 8 u K V.oX:X=X-X:X*X-X:X",
"A.V.c.x.B...r : - - & - 1 1 1 2 2 2 1 2 2 1 2 2 2 2 2 2 2 2 e x 7 0 9 2 3 1 9 9 8 8 7 < > > > < 7 9 7 7 9 q c { /.+X&X&X:X;X:X;X",
"V.x.x.g.x.' 6 - - & : 1 7 6 2 9 2 9 9 3 9 9 2 3 2 3 2 2 2 2 y z 9 t e 2 p 2 9 3 8 7 7 7 < 6 < : 5 7 7 3 7 8 p H K.].$X:X-X:X:X:X",
"c.g.g.h.x.L : : & * > 7 7 7 7 7 6 7 7 3 2 7 6 3 7 7 < 7 2 2 c p 0 t r 3 t 2 9 9 2 9 9 2 7 1 1 1 : 5 6 < 1 7 q Z F.W.|.*X*X*X*X*X",
"j.| z.B.x.V & : : 7 7 7 6 7 6 6 7 8 7 7 8 7 8 8 7 0 8 8 2 2 x z r r 0 0 0 1 r 9 9 9 2 7 2 2 7 1 > : : < > 1 9 [ D.L.Q.OX*X*X*X*X",
"q.{ x.B.h.a : > 6 7 6 > * * # & & = * * : > < 7 8 7 8 7 2 2 F p r 0 0 9 9 2 0 9 9 9 9 2 9 9 9 9 7 > = : 1 1 r i.D.J.L.].*X*X*X*X",
"' ' B.B.f.i 7 6 > : * O + & & # # * : > > > > > < 7 3 7 3 2 ~ 0 r e 0 3 9 2 0 9 9 3 9 2 9 7 1 9 7 7 > & > 1 F N.N.J.L.).#X*X*X*X",
"' ' x.h...r 1 : & & # & & & * = > 5 > < 7 5 1 2 7 < < 3 7 7 ~ 9 r 0 0 3 3 6 9 0 9 9 2 9 2 3 9 7 7 < 1 @ - 2 _ D.N.J.J.Q..X*X*X*X",
"_ ' x.x.` 6 : - > > < < > = : > > < 6 6 7 7 7 6 6 6 6 < 2 u F 7 0 9 9 7 9 2 9 2 7 7 9 7 2 2 1 1 > < ; # * 7 y.m.m.N.J.Q.{.*X*X*X",
"~ _ x.g.G * : 1 > < 6 7 8 0 7 6 < < > < > 6 2 7 < < > 5 : s c 7 9 9 3 9 7 7 9 9 2 9 1 7 2 1 1 1 > < ; # * r l.b.i.M.J.Y.'.:X*X*X",
"Q ) h.` q & 1 6 < 5 7 8 8 7 < ; : < 6 < 6 7 1 > > > > > - u e 7 1 1 2 9 3 2 2 9 9 2 9 1 2 1 1 1 > : - * * u C.b.n.Z.J.J.(.:X:X*X",
"J ~ q.z - 1 1 1 6 < < < > = = & @ @ @ @ & @ & * * * * * & 6 6 : 1 1 6 7 7 2 1 > 1 1 1 1 1 1 1 = 1 - * & & i G.m.n.N.D.N.Q.&X&X&X",
"J L F 9 - @ 1 1 > > = > : : : = * @ X X X O X o X o o o   : O & : 1 > 6 6 2 1 1 = 1 1 1 1 = - 1 - 1 ; @ & i M.N.l.M.N.m.E.&X:X&X",
"J Z e 2 1 * = @ % O o X & = > > = @ O O o                 &   & & & & : ; 1 1 1 - ; = 1 1 1 = 1 1 = 1 @ q A M.n.y.N.M.m.Y.$X:X:X",
"F z 2 1 2 2 2 1 < = ; ; ; > < * * @ @ @ @ @ O @ X         &   O O O o % & > 1 2 1 1 - = @ = - - 1 @ * 1 L ( G.n.y.N.M.m.L.$X:X:X",
"F r 2 2 2 0 0 0 0 3 3 2 3 8 8 8 2 1 $ # $ # - - : #     O : O O o   o o @ : > > 1 1 = = # @ # = * # X * ` g.V.l.y.M.n.m.W.$X&X&X",
"z 1 2 2 3 4 0 w 0 9 4 9 8 w w 0 0 4 2 3 2 1 2 2 = * O O 1 6 : * * * O @ o O & > 1 1 2 1 - 1 - @ * 1 @ @ A ..c.y.l.M.n.N.Y.$X*X&X",
"r 1 3 0 0 0 0 e 0 0 0 4 0 0 0 w 0 0 0 9 3 4 2 2 ; + + # z 9 * * - > ; ; * @ O O # 1 1 2 1 1 = = # - - O B .. .q.C.M.M.N.Y.$X%X-X",
"_ e 0 0 w 0 0 w 0 e e w e w 0 0 0 0 0 4 0 9 4 3 3 ; $ 1 c ; # * - - ; ; - * - * # 1 = = 2 1 1 1 1 @ O @ V } ~ g.n.n.V.N.Y.+X;X*X"
};
