/* XPM */
static char *result[] = {
/* columns rows colors chars-per-pixel */
"64 64 248 2 ",
"   c #13120D",
".  c #1B180F",
"X  c #100F10",
"o  c #131313",
"O  c #1A1612",
"+  c #161817",
"@  c #1C1A15",
"#  c #1B1B1A",
"$  c #2B1A14",
"%  c #281C16",
"&  c #231E1B",
"*  c #1E201E",
"=  c #24221C",
"-  c #2B261A",
";  c #33231E",
":  c #38281C",
">  c #32301E",
",  c #242422",
"<  c #2A2623",
"1  c #262824",
"2  c #2B2924",
"3  c #2B2C2A",
"4  c #332C25",
"5  c #3A2925",
"6  c #3C2B24",
"7  c #332E2A",
"8  c #2E312D",
"9  c #34322D",
"0  c #3A3529",
"q  c #362F30",
"w  c #343532",
"e  c #3B3533",
"r  c #363935",
"t  c #3B3A35",
"y  c #3A373A",
"u  c #3C3C3B",
"i  c #492F1E",
"p  c #422A24",
"a  c #452E27",
"s  c #44322B",
"d  c #463728",
"f  c #4C342C",
"g  c #54372C",
"h  c #433B35",
"j  c #473835",
"k  c #4E3933",
"l  c #433C3A",
"z  c #543B32",
"x  c #583E35",
"c  c #61372D",
"v  c #3E413E",
"b  c #52422D",
"n  c #4B4436",
"m  c #43433D",
"M  c #4B423C",
"N  c #554A33",
"B  c #574638",
"V  c #674639",
"C  c #75483E",
"Z  c #67543C",
"A  c #443E43",
"S  c #434442",
"D  c #4B4546",
"F  c #464845",
"G  c #4A4A46",
"H  c #4B4C4A",
"J  c #534B44",
"K  c #5A4A44",
"L  c #544C4A",
"P  c #4F524E",
"I  c #5C5243",
"U  c #595746",
"Y  c #54524D",
"T  c #5C524B",
"R  c #4F4F51",
"E  c #554E52",
"W  c #545453",
"Q  c #5A5454",
"!  c #5A5B55",
"~  c #5B565B",
"^  c #5C5C5C",
"/  c #644C46",
"(  c #6C4C42",
")  c #734C43",
"_  c #784D45",
"`  c #675848",
"'  c #735344",
"]  c #775549",
"[  c #7C5B4C",
"{  c #665B57",
"}  c #735B56",
"|  c #7C5D52",
" . c #5E615A",
".. c #6C644C",
"X. c #766649",
"o. c #69655B",
"O. c #7A6757",
"+. c #7B735B",
"@. c #5C5A60",
"#. c #696765",
"$. c #766A64",
"%. c #6F726F",
"&. c #7B7468",
"*. c #787975",
"=. c #85584A",
"-. c #975B4D",
";. c #855D51",
":. c #8A664E",
">. c #846455",
",. c #886658",
"<. c #8A6B5C",
"1. c #956859",
"2. c #877856",
"3. c #97755C",
"4. c #A96A5B",
"5. c #856C65",
"6. c #8B6D63",
"7. c #966E62",
"8. c #8D7165",
"9. c #89796A",
"0. c #947363",
"q. c #9B7263",
"w. c #97786A",
"e. c #8A7B74",
"r. c #987B73",
"t. c #A67665",
"y. c #AE7B6C",
"u. c #AC7C6C",
"i. c #B67E71",
"p. c #7D807E",
"a. c #96825A",
"s. c #898468",
"d. c #97866B",
"f. c #978E73",
"g. c #978678",
"h. c #A9846B",
"j. c #B7856E",
"k. c #A79669",
"l. c #A88576",
"z. c #B78976",
"x. c #A79876",
"c. c #BB937A",
"v. c #AEA076",
"b. c #B6A678",
"n. c #C58979",
"m. c #C6967C",
"M. c #C3AE7D",
"N. c #C6B47C",
"B. c #888986",
"V. c #93908B",
"C. c #9A948A",
"Z. c #9B9A97",
"A. c #A89887",
"S. c #BA9785",
"D. c #A99990",
"F. c #B1A98F",
"G. c #B8A889",
"H. c #B6A797",
"J. c #A9A8A6",
"K. c #B5B2AB",
"L. c #B7B4AD",
"P. c #C79985",
"I. c #D6958A",
"U. c #D69B89",
"Y. c #CBA287",
"T. c #CBA38D",
"R. c #D6A78B",
"E. c #D4A58C",
"W. c #C5B788",
"Q. c #C9A694",
"!. c #D3AB95",
"~. c #D8AB97",
"^. c #DBAD94",
"/. c #C7B898",
"(. c #D8B59B",
"). c #DBB39D",
"_. c #E2AF99",
"`. c #E2B295",
"'. c #E2B49C",
"]. c #E5BB9D",
"[. c #C5B9A8",
"{. c #DDB7A2",
"}. c #CFB9B2",
"|. c #E4AFA3",
" X c #E6B7A4",
".X c #E4BBA3",
"XX c #E4BDAB",
"oX c #CCC18D",
"OX c #CDC499",
"+X c #D5CA96",
"@X c #E5D29B",
"#X c #D6C8A9",
"$X c #D0C9B0",
"%X c #D7CBB7",
"&X c #E7C3A6",
"*X c #E5C2AB",
"=X c #EAC4AC",
"-X c #EBC9AE",
";X c #E4DBA7",
":X c #E4C5B3",
">X c #E9C5B1",
",X c #EDCCB3",
"<X c #EDCEBA",
"1X c #EFD1B6",
"2X c #EED2BB",
"3X c #E7DABA",
"4X c #F1D4B9",
"5X c #F0D5BD",
"6X c #E9E3AB",
"7X c #F3ECAA",
"8X c #ECE6B7",
"9X c #F3EDB3",
"0X c #F2EDBA",
"qX c #F6F2B4",
"wX c #F8F5B7",
"eX c #FCFBBC",
"rX c #C7C7C5",
"tX c #D5CBC6",
"yX c #CED0CE",
"uX c #DAD3CA",
"iX c #D9D8D6",
"pX c #EED5C1",
"aX c #E9DBC7",
"sX c #F1D7C2",
"dX c #F1DAC4",
"fX c #F2DCCA",
"gX c #E3DEDB",
"hX c #EDE4C8",
"jX c #F3E5C9",
"kX c #FBFAC2",
"lX c #FAF8C8",
"zX c #EBE5D4",
"xX c #F4EBD8",
"cX c #FAF0DE",
"vX c #E4E4E4",
"bX c #EAE8E5",
"nX c #ECECEB",
"mX c #F0EEED",
"MX c #EEF0EE",
"NX c #F5F4EA",
"BX c #F5F5F4",
"VX c #F8F7F7",
"CX c #F7F8F7",
"ZX c #F8F8F7",
"AX c #F7F7F9",
"SX c #F8F7F8",
"DX c #F7F8F8",
"FX c #F8F8F8",
/* pixels */
"DXFXSXZXFXFXFXFXFXFXDXBXvXrXZ.V.*.%.^ Y W Q W ! &.K.tXxXL.o.O.D.$XF.B.o.F F F m v v F F P W B.rXMXDXDXDXCXCXCXDXDXDXDXDXFXFXFXFX",
"FXSXDXFXFXFXFXFXDXDXvXyXJ.V.p. .! Y Y W W ! ! o.A.uXNXZXuXg.f.J.$X%XOXo.G F F F v v v v S F P P p.rXMXBXCXDXCXDXDXDXDXDXFXFXDXFX",
"FXFXFXFXDXDXDXDXAXgXrXZ.p. .P P W P P W W ! ! o.[.xXlXzX%XA.g.D.$X%X$XA.Y S m l v v r r r r v F F P B.yXMXDXCXDXDXDXDXDXFXFXFXFX",
"SXFXFXFXFXDXDXDXvXL.B.@.F F P F H P P P W W ^ g.$X8XhXxXNXbX%XH.G.(./.f.M v S u u r w 8 8 3 3 8 v v F  .J.nXDXCXDXDXDXDXZXFXFXDX",
"FXFXFXFXFXFXDXvXrXp.W F F F F P P P P W W !  .C.3XjXjXNXNX}.Q.Q.(.+X#X$Xo.m m u r r w 3 3 3 3 1 1 1 8 v v B.vXMXFXFXFXFXFXFXFXFX",
"FXFXDXSXFXBXvXJ.%.P H F F F F H H P P W W !  .g.%X0X0XxX}.r.7.P.W.#X(.A.n v v u r r w 8 3 3 1 , 1 1 1 1 8 F p.iXBXDXFXFXFXFXDXZX",
"ZXFXFXFXBXiXZ.@.F v v F F F F H P P W P ! ! o.H.8XjX8X%XD.} 5.H.%X3X#Xx.h y u r r 8 8 1 1 1 1 , * * * 1 1 3 v p.gXCXFXFXFXFXFXFX",
"AXFXZXBXyXV.~ F v v F v F F F H P P P ! ! ^ o.s.H.;X&X#XG.r.D.tXzXdX%X9.e r u r r 8 8 1 1 1 * * * + + * 1 + 1 v B.vXFXFXFXFXFXFX",
"DXDXDXiXZ.@.v u v v v S F F H H P P P ! !  .+.D.%X3X#X/.Q.G.Q.uXxX%XG.B = 8 r r w 3 3 1 * , , * * * + + * + + + r J.MXDXAXDXDXDX",
"DXDXvXZ.@.v v u v v v v F F H H P P W !  . .p.K.%XhXjXzXD.e.%XNXxX[.r.l 4 w r r 8 2 1 , * * * * + + + + o + + + * R yXBXAXDXDXDX",
"DXDXrX#.S v y y v v v v S F F H P ! P !  .#.%.H.zXjXhXhXuXhXzXzX:XA.B 2 8 r w 8 3 1 , * * * + * + + o o X o + + + 1 p.nXFXFXDXDX",
"DXnXZ.H r r y r r v v v S F H P P P ! !  .#.&.J.zXxXhXhXtXH./.#X#Xd.n 4 - 8 9 8 1 , * * * + o o o o o o o o o o + + u J.BXFXDXFX",
"DXyX*.v r w w r u u v v S S H R P ! ! ! o.$.&.$XaX3X%XOXg.s.f.d.d.>.b 2 9 r 8 8 1 , * . o o o o o o o o X o o o o + * *.bXAXAXDX",
"DXL.R r 8 8 w r r u v m S F H H U U  .+.p.s.f.v.x.k.x.f.2.2.2.X.X.Z N d 0 0 8 = , # *   + o o o o o o o o o X X o o + 9 yXBXDXSX",
"BXJ.F w 3 8 w w u u v m v m F U +.p.F.F.+X#X#XOXOXG.W.G.G.W.G.W.G.W.v.s.+...U n 3 - *   o   o o o o X X o o o X X o + = J.BXFXDX",
"nXZ.v 8 3 3 9 w r u v m m U +.A.OXOXF.x.s.X.` ` U U Z N n b h k d d n n ` +.s.s.+.U v = *   . o o X o o o o o o o o o # #.iXBXZX",
"vXB.r 8 1 8 8 w r w t n ..F./.F.+...B U J L I L L J D M j h t e 0 9 4 4 2 - - 2 0 n H Z n 1 .   o X o X o o X o o X + + ! vXCXCX",
"iXp.r 1 1 3 8 w r w n &.F.x.+.U G F G J J T L T L J M l l h s e 0 4 7 4 4 < < , * * . . 0 N n = +   o o X   o X o X o + ! vXCXCX",
"vXB.v 3 1 3 3 8 9 n +.A.p.Z n P J J H H Y T L L L J D m l h t 0 7 7 7 7 2 < 1 < = = *   o . 0 n >     o o o o X X o + o  .bXCXCX",
"vXV.v 8 1 1 3 3 8 ..v.+.N n H N J G J U J T L L L J B m l h h e 0 q 9 7 7 2 2 = 1 1 * + + X   * v v   o o o o o X X o * ! vXDXDX",
"vXg.9 3 3 8 3 7 v k.+.U G U N N N N U ` ` ....` ` ` Z Z I B N N b h d 0 0 4 4 = = * * . +   X   . v =     o o o o o + @  .vXCXCX",
"DXJ.t = , 2 9 e U s.X.......X.+.d.v.G.oX+X+X+X+X+X+X+XoXOXoXW.W.W.b.k.a.X.Z N b 0 > = * + . +     - v . o   o o o o o @ p.nXFXCX",
"DXrXT = * @ & > ..v.b.N.+X6X7X7XwXkXeXeXeXeXkXeXeXeXeXeXeXeXeXeXeXwXqX9X6X;X+XOXb.+.N > * . . O     v @ o   X o o o o * V.MXFXCX",
"CXiXo.= & & - Z oXwXwX7X7XqXwXeXeXeXeXeXeXeXeXeXeXeXeXkXeXeXkXkXeXwXeXwXeXkXlXkXwX9X;XN.2.Z d > . . > - *   X o o o + - K.BXFXFX",
"CXiX#.= = & d x.0XkXeX7X7XeXwXqXwXwXqXqX7XqX7X9X9X7XqX9X9XwX0XqXqXqXwXeXeXkXlXlXlXlXqX;X+XW.N.k.X.b 0 > O X X X o X o o.vXSXSXSX",
"CXiX*.0 = - ` OXlXqX7X@X@X6X@X+XW.G.N.b.b.b.c.b.v.b.b.b.M.N.W.M.oX+X;X6X8X8X0XwX0XkX0X6X@XN.N.N.b.k.a...> O   X o o w K.nXFXFXFX",
"CXyXV.U 4 d f.hXlX+Xb.k.a.3.2.` N z b N B B B B B b V Z Z Z Z b b N Z X.2.2.f.b.W.+X+XoX+X+X+XN.N.k.oX8Xs.= o     9 K.MXZXSXCXFX",
"ZXiXC.$.U N A.3XG.:.X.a.9.V s 5 6 0 0 h l l t s d k b 0 6 5 : % % % - - % $ - : 0 b Z 2.k.k.b.b.b.k.G.hXOX4 O   - J.MXAXFXDXFXFX",
"nXuXH.f.$.O.k.f.X.` h.x.` 0 7 3 q e y y l l y e J 9.e.{ J M t < & % O & O O O . O O . % > 0 i Z 2.a.k.@XA.; O & ! iXBXFXDXSXSXDX",
"f.D.H.F.F.v.A.d.U I +.I q 2 3 q 7 e y y e y y q h #.$.#.J L L < O # # o o O o O   X   O . - 0 : i i X.k.+.4 t B.rXmXFXSXFXFXFXFX",
"Q ` ` / I ` 5.&.#.K l q q y u y A D D A D D D A y L E E m Q D , + # O O O O o o X o X   .   . 4 n N b X.9.C.iXBXSXZXFXDXFXDXFXFX",
"U T T Y J J n T { Q E E R E E ~ @.@.@.~ @.@.@.@.~ R W L G D e < & # + o o   X o o X o       @ - t o.&.D.gXVXFXFXZXSXFXFXFXZXFXFX",
"2.X...` I B B B / Q Q L A A D E E ~ ~ #.@.Q Q E E E W D A A y q < & + + + o + o + O + # * < < 7 J o.D.nXFXFXFXFXZXFXFXFXFXFXFXFX",
"9X;XOXb.d.2.X.Z } e.l.$./ A k D D E $.Z.$.J D M J J J l e j q 7 < & < & < & & < & & , & < q A L j J iXSXFXZXFXDXFXFXFXBXFXFXFXFX",
"lXkXkXwXqX9X;X(.c.l.[.Q.l.5.} / x k j j s a a s f a 5 5 5 ; ; $ % % & & $ & ; & ; 5 q j A Q K 5 4 e.nXSXFXFXSXSXZXAXFXZXFXFXFXFX",
"6X8X9XqXqXqX7X6X/.S.XXXXQ.r.<.] x k a 5 a a a g f k f p a a p p 5 ; ; ; < 5 a a g A K ' } } / 5 6 Z.mXFXFXSXFXVXFXFXFXFXZXFXFXDX",
"9.d.x.G.W.&X@X&X!.S.:X<XXXS.1.x g z p $ $ p a a f f a i p 5 : ; ; & $ $ $ < 5 a x A / / } 5.E a M J.nXBXSXSXSXSXDXFXFXFXFXFXFXFX",
"{ o.{ ` ] u.n.m.{.).>X5X4X>X(.c.q._ g p p : a g z z a p p p 5 ; $ $ $ $ $ $ $ ; a k K / } $.} a B 5.D.tXBXSXSXSXSXFXFXFXFXFXDXZX",
"@.~ E L ` y.E.'.:X*X<X5XsX5X2XXXT.u.-.) c g g B V V g i a p 5 5 ; ; 5 ; 5 5 j k k k x / } 5.} g B ,.6.w.gXSXSXSXFXZXFXFXFXFXFXFX",
"~ ~ E L / u._.<XdX2X2XsXsXfXsX>X=X~.P.1.=.] ' ' ] [ V g a p p 5 p 5 q a f f k k k x K { } 5.} A } | ) ) tXmXVXSXFXFXFXFXFXZXSXFX",
"~ E A A C t.|.pXfX2XsXsXfXjXsX,X=X=XXX|.Q.x.r.q.l.l.w._ x f a a f f f j z g g A c / / } 5.e.} } } [ _ _ uXBXFXFXFXAXFXFXFXDXFXFX",
"j a 5 5 f 1.{.<X<X5XsXdXfXxXxX2X>X=X-X-X2XsX:XXX:X<XXXS.| V z z A c x x c A K x / / _ } 5.e.6._ ] =.=.,.gXBXFXSXFXDXZXZXSXFXFXFX",
"p 5 5 p f :.~.=XXX,XdXfXjXcXcXpX,X=X-X,XpXdX5X4X2X,X>XP.7.[ ) ( ( _ ) ) ( ) _ / _ } } 5.5.r.6./ _ ;.;.K.mXFXFXFXFXDXSXSXFXZXFXFX",
"f z g a g =.Q.>X&X1X5XdXjXcXxXsX,X>X>X>XpXpX4X<X<X,X*XT.z.t.r.t.7.7.7.7.7.;.5.;.} } 5.5.8.r.6.C ( _ w.gXSXFXSXDXDXFXFXZXFXFXDXFX",
"( ) ] ] =.3.!.,X>X,X5X5XsXsXfX5X,X=X=X-X2XpX<X4X5X<X>X).P.i.y.P.~.|.].).!.P.z.r.6.6.5.6.r.r.6._ c [ D.BXFXFXSXFXFXFXSXFXFXFXAXZX",
"S.S.Q.!.).^.=X5X4X1X1X5X2X2X4X1X=X&X.X=X2X2XpXpXfXsX>X|.T.i.S.S.T. X&X=X X|.~.S.l.6.6.6.e.r.5._ _ ;.}.BXFXFXFXFXFXFXFXFXFXFXDXSX",
",X5X5X5X-X=X=X2XsX1X,X<X<X,X,X=X X'.].=X,X5XsXsXfXpXXXT.z.z.z.y.u.P.]..X'._.U.S.r.7.5.6.r.r.5.} _ 7.iXBXFXFXFXFXDXFXFXZXFXFXFXZX",
",XsXdX4X&X].].>XsX4X,X>X,X-X-X.X_.`.XX>X>X*X).{.XX X~.u.1.1.7.1.=.u.R.`._.U.S.h.q.6.8.r.r.r.>.5.7.D.nXSXFXFXDXVXFXFXFXSXFXSXCXZX",
"-X4X1X=X].`.R.].4X1X>X,X,X,X&X X`..X:X5XpXXXS.z.I.P.t.=.c V _ _ _ :.j.U.U.m.j.q.<.<.8.8.r.r.6.8.C.uXSXSXFXFXFXFXFXFXFXFXFXFXFXFX",
"-X-X=X].`.R.m.`.&X1X1X1X,X-X=X].XX2XdXfXfXdX<XXX~.n.4.=._ ) ) _ ] ;.1.j.m.P.u.<.,.<.8.8.r.r.6.8.tXmXSXSXSXFXSXFXSXFXZXFXFXFXFXSX",
"=X&X].R.m.m.m.m.R.-X1X1X1X-X,X=X,X2XsXsXfXfXfXpXXX).P.u.6.;.=.;.;.,.1.j.Y.Y.l.<.,.<.<.8.l.r.0.A.bXSXSXSXFXFXFXFXFXFXFXFXZXFXFXFX",
"&X`.`.R.E.M.m.j.m.*X1X,X1X1X,X,X,X,X<X4X<X<X<XXX X|.|.~.P.i.7.7.6.1.3.z.!.^.z.7.,.,.6.w.H.H.H.iXBXSXSXSXFXFXSXFXFXSXFXFXFXFXFXFX",
"&X].`.`.^.R.m.c.c.XX1X,X1X1X-X-X.XE.E.^.~.~.~.E.I.I.I.n.z.y.i.t.7.,.t.c.(.{.l.7.<.<.8.l.gXBXVXFXSXSXSXFXFXFXFXFXFXSXFXFXZXFXFXFX",
"].].].].'.R.c.j.j.'.,X,X-X1X,X-X^.t.-.t.z.n.z.n.n.i.4.-.-.-._ C V C :.Y.*X{.l.<.<.5.9.H.mXSXZXZXSXSXFXFXSXFXFXSXFXFXFXZXFXFXFXSX",
"].`.].&X].Y.n.j.h.Y.=X,X1X-X,X-XXXE.i.P.|.XX<X>X{.Q.P.u.1.=.C c i c t.{.=XT.w.<.<.6.g.%XBXZXFXFXSXSXSXSXFXFXFXFXFXFXSXFXFXFXFXZX",
"`.`.`.].R.M.z.h.3.j.].-X-X,X,X,X<X:XXXXX:XpXfXfXdXpXpX|.P.y.-.C =.q.!.=X.Xz.3.,.<.0.D.zXZXFXFXFXSXSXSXSXFXFXSXFXCXFXDXZXSXFXFXFX",
"R.R.R.R.P.c.h.3.:.3.Q.-X-X-X1X-X,X1X,X=XXXXXXX>XXXXXXX|.I.I.i.i.i.E.XX&XY.t.<.<.<.g.%XmXSXSXFXFXDXFXFXDXZXFXFXZXFXFXFXFXFXSXVXFX",
"Y.m.m.M.m.h.3.:.[ [ h.).-X,X1X1X1X4X4X,XXXXX X|.|.|.|.I.I.i.t.4.z._..X!.h.<.>.,.0.D.gXBXFXSXFXFXFXZXFXFXSXFXDXDXFXFXSXCXFXFXFXFX",
"M.m.m.c.h.3.:.] Z Z [ m.&X-X1X1X1X4X4X1XXX|._.U._.I.I.n.4.-.1.1.P.~.~.c.1.>.O.<.9.[.mXCXSXFXSXFXDXFXFXFXSXZXSXSXFXFXFXCXFXSXCXFX",
"P.m.z.h.3.=.] C V V V 3.(.-X,X1X1X1X4X4X-X XU.n.n.n.i.t.-.-.:.7.P.!.P.w.<.O.>.<.w.[.mXFXFXFXFXFXFXFXFXFXFXFXZXSXFXFXFXFXZXDXFXFX",
"c.h.0.:.X._ C V B B V =.E.&X,X1X4X4X4X4X,X=X'.U.I.n.i.y.4.1.q.z.Q.P.h.,.;.O.,.<.<.}.MXDXFXVXDXSXDXFXFXFXFXFXFXFXFXDXFXFXDXFXSXDX",
"3.:.X.[ C V B b b V ( ,.!.-X-X1X4X4X5X5X4X,X-X X|.~.^.U.P.c.S.!.T.z.<.;.X.;.,.| 5.tXBXCXFXSXFXFXFXFXDXFXFXFXFXAXFXAXSXSXFXFXFXFX",
"A.6.] ( V x x x ( } } r.(.-X-X-X4X4X5XdXsXsX4X>X=XXX X_.~.(.(.!.c.0.>.| | | ' } g.gXFXFXFXFXDXZXFXFXFXSXFXFXFXFXZXZXFXDXFXDXFXFX",
"uXg.` V b x / } 9.V.V.A.{.1X-X&X-X4X5XfXjXjXsX<X-X-XXX.XXX{.(.S.w.>.O.| ] ( Z ' A.bXSXFXFXFXFXFXFXDXZXFXSXFXFXFXFXDXFXFXFXZXFXFX"
};
