/* XPM */
static char *result[] = {
/* columns rows colors chars-per-pixel */
"64 64 230 2 ",
"   c #0C0902",
".  c #130C04",
"X  c #190D07",
"o  c #0D1306",
"O  c #0E120B",
"+  c #1B1205",
"@  c #1E1904",
"#  c #12130C",
"$  c #19150A",
"%  c #1B1A0D",
"&  c #151911",
"*  c #1D1D13",
"=  c #230D08",
"-  c #2B1907",
";  c #24130A",
":  c #2C140C",
">  c #241B0D",
",  c #2B1C0E",
"<  c #31130D",
"1  c #311B0E",
"2  c #2B1611",
"3  c #211C13",
"4  c #2B1B12",
"5  c #341E13",
"6  c #391E13",
"7  c #1F2319",
"8  c #2F210F",
"9  c #252215",
"0  c #2B2415",
"q  c #2D2817",
"w  c #23221B",
"e  c #2A251A",
"r  c #2E2A1B",
"t  c #342414",
"y  c #3C2516",
"u  c #362916",
"i  c #3D2C16",
"p  c #35241B",
"a  c #3C241A",
"s  c #332B1B",
"d  c #3C2D1C",
"f  c #3D311E",
"g  c #2A2521",
"h  c #2D2C22",
"j  c #342E22",
"k  c #3D2D21",
"l  c #2C3125",
"z  c #343124",
"x  c #3C3423",
"c  c #35352B",
"v  c #3E3729",
"b  c #3D3C2B",
"n  c #3B3D33",
"m  c #452417",
"M  c #422C15",
"N  c #41251B",
"B  c #432C1C",
"V  c #4A2E1E",
"C  c #413117",
"Z  c #43321D",
"A  c #4A341D",
"S  c #4C391E",
"D  c #51381F",
"F  c #442D22",
"G  c #4A2E21",
"H  c #433523",
"J  c #4C3422",
"K  c #443A25",
"L  c #4C3B24",
"P  c #483629",
"I  c #453B2A",
"U  c #4B3D2B",
"Y  c #513524",
"T  c #533D24",
"R  c #583E26",
"E  c #573B2B",
"W  c #533D2A",
"Q  c #453C32",
"!  c #4A3831",
"~  c #533E33",
"^  c #4C4027",
"/  c #44402C",
"(  c #4C412C",
")  c #534127",
"_  c #54432B",
"`  c #57462B",
"'  c #5A442C",
"]  c #5C4A2E",
"[  c #4D4333",
"{  c #434439",
"}  c #4D443A",
"|  c #534532",
" . c #5B4631",
".. c #554934",
"X. c #5D4B33",
"o. c #5E4738",
"O. c #544C3B",
"+. c #5B4C3A",
"@. c #5F5135",
"#. c #57503D",
"$. c #5D513B",
"%. c #61472E",
"&. c #604434",
"*. c #614D35",
"=. c #684D35",
"-. c #62453A",
";. c #624E39",
":. c #694E3A",
">. c #625135",
",. c #6B5036",
"<. c #64533C",
"1. c #69553D",
"2. c #65583D",
"3. c #6B5A3E",
"4. c #715C3F",
"5. c #4A4D42",
"6. c #5C4441",
"7. c #554841",
"8. c #5E5343",
"9. c #575448",
"0. c #684C46",
"q. c #635542",
"w. c #6B5542",
"e. c #655944",
"r. c #6C5B43",
"t. c #61574C",
"y. c #6E524B",
"u. c #655C4B",
"i. c #6B5D4A",
"p. c #705544",
"a. c #725D44",
"s. c #73564D",
"d. c #725D49",
"f. c #795F4C",
"g. c #735654",
"h. c #745B51",
"j. c #7A5C57",
"k. c #6D6045",
"l. c #6D624B",
"z. c #736346",
"x. c #7B6247",
"c. c #796946",
"v. c #74644B",
"b. c #7A654D",
"n. c #75684D",
"m. c #7A6A4D",
"M. c #6E6452",
"N. c #6A6754",
"B. c #736552",
"V. c #7B6552",
"C. c #756A54",
"Z. c #7C6C53",
"A. c #7D645B",
"S. c #756C5B",
"D. c #7C6D5A",
"F. c #7E7156",
"G. c #74705E",
"H. c #7E715B",
"J. c #7D7561",
"K. c #80674F",
"L. c #826D55",
"P. c #84685A",
"I. c #826E5A",
"U. c #817356",
"Y. c #867557",
"T. c #82735B",
"R. c #8A755D",
"E. c #83795C",
"W. c #897A5F",
"Q. c #836663",
"!. c #886A67",
"~. c #847661",
"^. c #8A7662",
"/. c #867A62",
"(. c #8B7B63",
"). c #87766A",
"_. c #8C7D6A",
"`. c #927E64",
"'. c #927E6B",
"]. c #8D8165",
"[. c #8D826B",
"{. c #8A8569",
"}. c #938265",
"|. c #998166",
" X c #93846C",
".X c #9B856C",
"XX c #938A6D",
"oX c #9B896D",
"OX c #8A8872",
"+X c #958572",
"@X c #9A8572",
"#X c #948A72",
"$X c #9B8B74",
"%X c #948F79",
"&X c #9D8E7A",
"*X c #8E907B",
"=X c #9D9177",
"-X c #989379",
";X c #9C937A",
":X c #A18D74",
">X c #A18D7A",
",X c #A29176",
"<X c #A3937C",
"1X c #A8967D",
"2X c #A6987E",
"3X c #AB997E",
"4X c #9C9683",
"5X c #A49582",
"6X c #AA9581",
"7X c #A69A83",
"8X c #AB9C83",
"9X c #A09E88",
"0X c #AA9C8A",
"qX c #B19E87",
"wX c #AEA087",
"eX c #A3A18C",
"rX c #B3A48B",
"tX c #AAA694",
"yX c #AEAD9A",
"uX c #B7A890",
"iX c #BDAB94",
"pX c #B3AEA0",
"aX c #B5B4A4",
"sX c #BABBAC",
"dX c #B7BCB3",
"fX c #C1AD99",
"gX c #C2B199",
"hX c #BEC0B4",
"jX c #BBC2BA",
"kX c #BEC4C1",
/* pixels */
"i.e.q.+.#...( ^ U I / ( [ ( | +.$.` / ( ^ _ W _ ( _ _ ` ` ..` _ _ _ U H H H H P I I I I Q Q / [ [ } } } O.9.G.G.9.b b b x x 9 o ",
"B.e.q.+.X.` _ ^ ^ I ^ I U [ [ | ..( S L U _ _ ) _ ( _ ` _ _ X.U W U L H P P ! U U I I U U [ } O.O.O.O.#.O.#.q.).4XOX9.b I v q + ",
"l.q.o.| _ ( ( ^ I K K I U ( [ [ ( / K K U _ U U K ^ K ^ @.X._ ) U _ ( ( U ( [ P U ( U [ | O.+.q.u.u.u.q.9.8.8.$.u.-X*XN.O./ x 8 ",
"q.+.[ U / Z / K K K K K I I I U ( ^ S K L U U K f ^ ` ] @.e.` / U K [ ( ( I U I I I U ( ..#.q.M.C.S.M.u.k.8.u.8.9.N.N.G.8...( 0 ",
"k 0 4 3 e 0 s s f x v K I I I I ^ ^ I K f x ( [ @.k.k.2.@.( i f H H ^ / L K K K P I U L ( ..8.B.D.S.C.l.l.8.e.l.l.8.#.#.8.#.#.f ",
"* $     . # % 0 r s x x v I I I U ^ ^ Z u P ..2.2.k.k.c.k.2._ u u K [ U K K H K x x H K I ( +.u.C.Z.C.n.l.l.k.k.C.C.O.b [ #.$.#.",
"* O # O # O & l r 9 r z x I H I ^ ( ..K d _ +.<.k.m.F.m.k.2.@.f 0 U [ P K K x x s s r p s s k I O.q.k.v.n.k.k.l.N.S.k.b q #.q.k.",
"g O # # # O & b l e 9 r x H x I [ ..+.U P | <.k.m.F.].Y.n.2.2.f d | U I H H f s s 0 $ $ $ O & 3 r z b #.k.l.z.l.n.C.C.#.@ x 8.G.",
"c # O O o & w { b e 9 e x v H Q #.e.$...( ..+.V.L.Y.}.}.m.r.<.H | o.O.H H H f 0 0 % O # # # & * r l e q O.k.l.n.n.F.E.G.@ l ( J.",
"Q 3 & # o * l c l w 9 s v I [ +.$.e.2...[ [ $.z.Z.Y.(.}.Z.i.<.H +.+.+._ U I s 0 j * # O O & O 7 n n z q f [ k.l.l.F.H.E./ @ b N.",
"5.c g w 7 w z j s r z I [ O.$.e.k.e.$.[ U #.l.i.n.L.Y.T.v.r.2.H q.u.q.8.} U s e h 7 # O & & # g 5.5.n r 9 f ..r.n.F.{./.G.@ x q ",
"7.~ Q ! v v z v K K ( O.$.$.k.n.n.k.../ I | q.<.z.m.F.T.v.3.@.H +.B.S.i.q.8.I j j e % # O   w { 9.5.{ x s s H 2.l.F.].{.OX% x #.",
"8.o...~ U _ | | | ..$.e.k.z.n.z.n.l.f f K ( _ 3.v.L.R. XT.<.L i P l.S.H.M.l.u.| I x j r j j 5.9.9.9.5.} ~ P H ..k.F.{.XX-Xb b N.",
"e.q.<.+.+.;.;.<.<.e.z.n.n.n.n.n.l.e./ / I ( ( i.V.R.^.$X'.w.Z t K e.H.~.H.S.B.u.+.} ~ } O.9.t.t.t.u.t.u.u.i.q.$.k.F.{.XX-X@.^ E.",
"C.v.v.v.a.d.i.v.n.Z.Z.Z.m.m.n.z.k.k.k.@.( )  .Z.R.`.'.>X0X^.P i X.B.~.[.[.J.J.C.i.e.8.+.q.u.B.C.S.D.D.D.J.~.H.Z.F.~.XX-X-XF.@.OX",
"/.H.H.D.Z.V.Z.Z.Z.D.F.F.F.m.n.z.k.k.l.2...` r.R.'.'.@X6XiX1Xi.H X.l.J.[.'.).~.G.D.B.i.i.i.i.S.D.D.D.D.~.E./.W./._.{.-X;X-X{.k.-X",
"_./.I.D.D.L.L.D.T.T.D.F.Z.m.n.v.v.C.C.2.#.X.C. X$X@X@X0XfXrX/...+.C.~.[._.OX/.~.T.G.B.v.B.S.D.J.~./.).(._.}. XXXXX$X<X;X@X{.Z.7X",
"[./.~.T.T.T.T.I.Z.T.Z.Z.Z.m.n.b.Z.~.S.i.2.q.H.$X>X@X@XqXfXqX X<...C./.~.J.)./.~./.~.H.D.Z.H.~./.[.+X$X&X$X-X;X&X>X6X2X=X$XH.E.;X",
")./.~.T.I.I.T.L.L.m.m.m.v.m.Z.B.J.J.B.8.q.B./.$X>X$X$X1XgXuX@XZ.( Z.D.H.J.J.H.H.~.~.~.T.T.~.E./. X$X;X7XwX8X8X8XwXwX3X$XXXU.W.@X",
"~.J.D.D.D.L.L.L.b.c.m.v.n.m.Z.D.).C.u.+.u.D._.>X<X:X:X1XfXiX<X X..e.B.Z.C.D.D.Z.H.T./.T./.~.E._.XX&X;X8XwXwXrXuXrXrX2XoX(.F.].=X",
"T.D.Z.D.Z.Z.Z.V.b.b.m.m.b.n.v.~.~.e.q.;.B.~.+X6X5X&X>X1XiXiX6X+XZ.H v.C.B.n.C.C.Z.F.T.T.^.R./._.[.$X=X2X8XwXrXrXrX1X=XoXT.E.&X,X",
"D.Z.L.Z.L.Z.m.Z.b.c.v.v.v.n.D.T.i.$.+.i.I.).$X7X0X&X>X6XfXiX1X.X(._ 3.v.n.n.v.v.C.Z.Z.T.T.T.E.^._.[.$X<X5X8X8X8X1X=X$X].^.,X8X8X",
"Z.Z.D.I.Z.Z.b.b.v.d.z.z.v.Z.E.u.X.X.+.v.).'.&X0X5X&X&X6XfXiX1X:X Xv.] z.n.n.v.v.v.n.Z.Z.Z.T.T.Y.W.(. X@X=X,X<X$XXXXX{.Y.,XrX3X3X",
"B.D.D.T.D.Z.b.v.r.r.v.Z.D.F.2...X.' <.Z.).+X4X0X5X@X+X>XiXfX6X>X.XF.<.<.T.m.i.Z.r.d.Z.Z.Z.U.D.I.T.W.W.(. XXXXX(.'.[.F.-X3XwXqX3X",
"C.C.D.D.B.V.l.d.d.n.B.v.z.$.;.X.] X.v.T._.OX5X0X5X'.'.&XqXfXqX>X@X(.d.*.X.W.W.r.l.v.v.v.Z.Z.Z.I.I.T.^.R.^.(.^._.(.H.}.2X2X3X8X3X",
"D.Q.D.D.S.Z.B.C.B.d.w.;.@. ._ ' X.r.T._.'._.%X&X@X).).'.>XqX1X>X$X}.m.:.*.<.^.XXn.l.n.Z.n.V.D.Z.L.Z.I.I.E.^.^./.T.E.$X>X1X1X3X3X",
"q.y.i.B.B.h.i.+.+.o.+.<.' L ) ' r.H. X&X'.)./.^.T.P.P.^.'.'..X.XoX.X^.a.*.*.X.C.#X].v.v.Z.V.D.D.D.Z.D.H.T.I.D.Z.T.+X.X@X:X,X,X1X",
"h.i.i.i.i.i.w.w.<.*. .' ) S S 3.(.+X$X+X^.D.Z.A.V.b.V.P.P.R.^.`.|..X|.Y.%.] *.X.2.n.~.E.Z.S.S.H.J.H.D.C.l.v.B.~.(.`..XoXoX:X,X,X",
"B.i.i.i.w.w.w.<.*.] ' R D S ] T._.).^.~.V.d.d.d.f.a.f.x.K.P.R.R.R.`.|.|.x.%.%.=.<.<.<.e.B.B.B.M.i.i.q.e.k.Z.T.^.W.}.}.}..XoX:X,X",
"B.i.r.w.<.<.*.-. .] ` ) D C 1.R.T.I.V.f.w.:.<.:.:.1.w.p.a.x.b.K.K.K.`.`.`.,.D %.] >.i.i.e.e.u.i.M.B.C.Z.Z.T.W.(.|.Y.}.}.|.|.oXoX",
"B.e.q.;.*.*.X.X.&.] ' ) S S 4.c.d.p.1.:.*.'  . .*.;.:.:.1.p.p.a.x.x.K.R.`.L.R ) ] *.*.>.e.r.i.i.i.i.i.v.Z.~.}.`.`.`.}.}.}.}.|.oX",
"d.r.<.*.*.X.*.*. .*.` D C T 4.4.1.,.%.R E J J E E  . .&.&.=.,.=.%.=.,.K.Y.Y.) D D ` *.*.*.;.:.<.3.r.i.n.D.(.(.`.`.`.].}.}.}.}.oX",
"v.i.<.*.+.<.<.;.*.>.' A M Y :.:.%.' A 1 > 0 k L ' ) %.) R '  .T m D ' =.x.K.' A T R ] %. .*.*.;.:.2.i.V.I.^.^.`.`.'.}.(.`.].}.XX",
"d.d.r.<.<.<.<.<.<.*._ A M V %.%.R V - .   . ; p Y ) D ) E J i + = = i E =.,.D A T E '  .o.*.*.<.w.w.d.Z.R.R.^.(.`.(.W.(.(.(.}..X",
"a.v.i.r.r.r.1.2.<..._ J V M Y R T J 4 + X X $ t B L S D Y m , . . . p W %.%.R D T R %. .*.=.<.3.i.a.V.L.T.R.R.R.R.^.^.W.(.(.(.XX",
"v.v.z.z.r.a.r.3.<. .R A A Z A L Z F d t 0 4 t s H Z L A J i t > - t H J R R R D E R  .*.;.<.1.i.z.v.Z.L.T.T.Y.R.R.R.W.^.^.(.(. X",
"v.v.a.i.r.r.3.<.*.' U L W U S Z Z B i k d d d d Z H Z Z J J Z d d B J Y R %.%.E ' ' &.;.1.3.r.z.x.n.Z.L.Z.U.L.Y.L.R.T.E.W.W.]. X",
"z.v.z.a.z.r.2.=. .' _ R _ ` ..X.P H B d H B x J J f H H U P P L Z B B W 4.f.r.*.*. .*.<.<.r.a.v.b.b.b.Z.Z.L.U.L.T.L.T.W.W.^.(..X",
"d.v.z.i.a.r.2.=. .' _ _  .+.0.i.r.+.| P P P P P L H H L W | | _ _ J ' d.Z.Z.v.a.w.;.;.w.a.a.k.v.B.Z.m.m.Z.Z.m.L.L.Y.T.W.^.(.[.XX",
"v.v.a.r.i.1.2.*. .'  .;.*.+.2.r.i.y.+.+.| | ` U L H L T | <.<.w.r.i.D.E.I.Z.Z.B.v.w.<.w.r.a.v.x.b.m.Z.Z.Z.Z.m.U.L.T.Y.(.W.^. X+X",
"i.z.r.r.r.3.<.*.*.*.*.+.<.q.e.i.i.q.q.8.+......._ U T ` >.3.r.z.v.Z.H.H.H.H.T.Z.C.z.w.r.r.v.v.v.c.Z.m.L.m.Z.c.F.Y.Y.E.W.(.(.{.#X",
"r.i.r.r.r.3.2.*.<.<.:.<.<.1.w.e.u.e.q.w.w.8.q.:.X.| _  .1.k.v.Z.Z.Z.T.~.E.T.F.F.Z.v.k.i.z.v.z.v.c.m.m.m.L.m.F.m.T.E.W.(.].]. X#X",
"3.r.3.r.r.w.<.1.e.<.;.;.+.<.<.r.w.q.2.2.r.r.<.<.1.*.| X.r.n.Z.Z.F.H.H.T.H.H.Z.Z.n.n.v.z.k.z.z.z.n.m.L.m.m.U.m.Y.T.W.W.W./.].[.-X",
"1.r.w.r.r.r.3.r.w.<.X.*.*.<.<.w.<.w.e.r.r.r.r.i.z.i.1.<.i.Z.Z.D.T.T.H.T.H.H.Z.n.v.v.z.r.k.z.v.z.c.n.m.m.m.m.L.U.T.R.W.W.].[. X=X",
"r.<.3.r.r.r.r.1.r.+.*.;.+.<.<.<.w.r.r.r.r.a.d.d.Z.Z.V.d.v.Z.Z.I.H.T.T.H.H.Z.C.n.v.z.z.z.z.v.z.z.z.v.b.m.Z.L.U.U.E.W.W.W.].[.#X-X",
"<.2.w.r.2.r.r.<.<...X...+.<.<.<.$.<.e.r.q.<.0.w.p.B.P.d.w.d.V.V.Z.T.T.T.H.Z.n.v.a.r.3.z.z.z.z.4.z.z.c.n.m.Z.L.U.Y.W.(.].{.{.#X;X",
"3.<.1.3.<.<.<.;.X.| _ ` X.<.<.<.<.<.<.-.o.~ W P o.0.a.w.&.&.=.a.b.Z.L.Z.G.Z.v.l.r.2.2.k.k.z.k.z.z.z.v.m.m.L.F.Y.E.(.W.].{.}.#X5X",
"1.1.r.<.1.<.<.X._ L L L ( X.>.X. .] _ Y G F B B J Y E E Y Y E E :.p.n.Z.b.l.e.2.2.$.2.k.k.z.z.z.z.z.c.c.m.Z.U.F.W.^.(.].].XX#XtX",
"1.1.1.>.<.*.X.` L Z Z S L ( _ _ Y G B N F N F N N F Y Y J V J V J E ;.r.r.e.@.] ..@.@.4.3.k.k.z.z.4.c.c.c.m.Y.m.].].E.].].XX-XtX",
">.1.2.>.*.X. .W A f i f Z K H i 6 a N N N F N 6 N N G G G m G G V m Y E ..X._ U ^ ` ] >.>.3.4.4.z.z.c.z.c.F.m.].F.F.].].].XX2XyX",
",.>.>.*. .X._ L Z C u t u u t 5 2 6 p 2 < 2 < 2 < 6 6 6 6 6 6 6 N m m V A Z f C f S ` ] >.>.3.z.z.c.c.c.c.m.c.F.].E.].].XXXX9XaX",
">.*.*.] ' ) R L Z i t , > 4 2 2 2 2 2 = = = = = : = < < < < 1 < 1 1 6 6 t t 1 t i f S ] ] >.1.3.z.c.m.c.F.c.F.F.U.].].].XXXX9XhX",
"<.>. .] ' ) T S Z y 4 > ; = = 3 5 ! 7.6.6.0.~ 0.6.6.-.-.0.y.0.j.h.0.J 5 : ; 1 t u i C ` ` >.,.z.v.c.m.m.m.F.F.].E.Y.].}.XX-XyXhX",
"2.>.' ` ) ) D A i t , , 4 4 j ! 6.0.0.g.g.g.g.j.Q.Q.Q.Q.!.!.Q.Q.A.P.A.y.! k a 5 8 u C ) ` *.>.z.c.v.m.Z.c.L.U.E.].].].{.XX-XyXhX",
"2.@.] _ ) R A S C t u p d ! ~ 0.y.y.0.s.g.g.s.s.s.j.Q.P.!.Q.Q.Q.A.A.A.A.S.h.o.H i i A U ` @.>.4.v.v.m.m.F.Z.Y.E.E.E.{.XX*X-XaXjX",
",.X.X._ ' T L A C i B P U ~ o.-.w.y.0.y.p.0.0.w.w.p.0.y.g.j.s.K.V.A.D.D.Z.V.d.+.W L A T ` ] >.4.z.v.m.m.m.F.Y.F.E.].{.XXXX-XhXjX",
">.>.' _ _ T T Z Z L P  .+.+.q.y.r.3.w.w.1.:.;.&.o.o.-.o.-.:.w.p.d.f.f.P.Z.L.L.v.2.` ^ ^ ` ] >.4.z.n.c.F.F.m.F.].].].{.#X%XyXsXhX",
"X. .] T _ T L L L T _ ..;.w.w.r.r.1.<.:.:.:.o. .E E E E ~ ;.:.p.p.f.b.b.m.Z.Z.b.k.@.` ` ] ] ] 3.k.c.c.F.m.m.F.F.E.E.].#X4XpXdXhX",
"] ] ` _ T W L U _ ` ..;.<.<.2.q.<.2.<.X.&. ._ W Y Y W W E &.-.<.p.d.x.b.L.m.Z.m.c.>.] ] ] ] >.3.k.z.c.F.F.Y.F.E.E.E.].XX4XaXhXhX",
"] ] ` ) ) _ U _ _ | X.;.+.X.<.X.>.+.X.X._ E E W W W E E E  .X.;.3.p.d.c.m.m.m.m.c.4.>.] ] ] >.>.3.z.c.m.m.m.E.F.E.].{.XXeXsXdXjX",
"' ' ' ) _ ) T _ ] ] X.>.X.X.X.X.@.@.X.` _ T U W P L E W E '  .,.3.4.x.c.c.m.m.c.c.3.] ] ] >.] >.3.4.z.n.m.F.F.H./.{.{.%XyXhXhXjX",
"` _ _ ) ) ) ) ) ` ` ` ` ] ] ] X.X.X.] _ W U T W _ E _ ' ] ] *.>.3.a.z.c.c.c.c.c.4.3.>.] ] ] ] >.2.4.c.m.m.m.E.E././.XX-XaXhXjXkX",
"' _ ) ) ) ) ) ^ ) ) ) ) ` ] ] ]  .X. .] ] _  . . .X.;.*.=.1.1.3.a.a.z.c.c.c.z.z.4.>.>.] ] ] ] >.>.k.k.n.F.F.F.F.H.{.{.eXsXjXjXkX",
"` ` T ) ) ) ) ) ) L ^ _ ` ] ] @.X.*.*.>.<.<.<.,.3.1.1.r.a.d.z.x.z.x.z.c.c.4.4.3.4.3.>.] ] ] ] ] >.4.k.c.m.F.F.F.F.{.[.yXhXjXjXjX"
};
