/* XPM */
static char *result[] = {
/* columns rows colors chars-per-pixel */
"64 64 234 2 ",
"   c #140C06",
".  c #190F07",
"X  c #150E08",
"o  c #1C120C",
"O  c #0D0D11",
"+  c #141316",
"@  c #15141C",
"#  c #18171E",
"$  c #1B191C",
"%  c #20150D",
"&  c #23180E",
"*  c #2D1E0F",
"=  c #231B11",
"-  c #241811",
";  c #2B2116",
":  c #2D241A",
">  c #332316",
",  c #31251C",
"<  c #33291E",
"1  c #3B2A1D",
"2  c #191721",
"3  c #1A1924",
"4  c #1C1A24",
"5  c #201E27",
"6  c #211F29",
"7  c #272126",
"8  c #2C2425",
"9  c #24222C",
"0  c #342B22",
"q  c #3B2F23",
"w  c #322729",
"e  c #3B3126",
"r  c #3D332A",
"t  c #262530",
"y  c #282732",
"u  c #2B2B35",
"i  c #2E2E3A",
"p  c #362B31",
"a  c #2F303C",
"s  c #3B3437",
"d  c #31323E",
"f  c #452F1E",
"g  c #412F21",
"h  c #42362C",
"j  c #493729",
"k  c #43392E",
"l  c #573D2A",
"z  c #443C33",
"x  c #483833",
"c  c #523D33",
"v  c #6A3A31",
"b  c #5D422E",
"n  c #4B4135",
"m  c #4D443A",
"M  c #5A4335",
"N  c #55463A",
"B  c #64483A",
"V  c #6B4D3A",
"C  c #6F4C38",
"Z  c #78543D",
"A  c #343541",
"S  c #373845",
"D  c #393A46",
"F  c #3B3D4A",
"G  c #413C45",
"H  c #3F404E",
"J  c #48434B",
"K  c #574C43",
"L  c #5B5145",
"P  c #5D5349",
"I  c #434453",
"U  c #494A56",
"Y  c #4B4C5B",
"T  c #584F58",
"R  c #575458",
"E  c #674B46",
"W  c #6E5344",
"Q  c #665649",
"!  c #645A4C",
"~  c #745445",
"^  c #7A5246",
"/  c #7B5647",
"(  c #7D5C4A",
")  c #655A54",
"_  c #696255",
"`  c #6E645A",
"'  c #786958",
"]  c #7F705E",
"[  c #535463",
"{  c #535666",
"}  c #5A5C6A",
"|  c #665C64",
" . c #5F6071",
".. c #64636D",
"X. c #7B7366",
"o. c #636473",
"O. c #666979",
"+. c #737277",
"@. c #9A4C4C",
"#. c #835C44",
"$. c #865B49",
"%. c #985A4E",
"&. c #875D52",
"*. c #995750",
"=. c #9C5D52",
"-. c #A55C56",
";. c #8A634A",
":. c #8D634B",
">. c #956749",
",. c #94654D",
"<. c #95694C",
"1. c #9A6C4F",
"2. c #9E704D",
"3. c #8C6553",
"4. c #8B695A",
"5. c #946552",
"6. c #9B6354",
"7. c #956A53",
"8. c #9B6C53",
"9. c #93695A",
"0. c #9B6D5A",
"q. c #98725A",
"w. c #9D725B",
"e. c #A2724E",
"r. c #A26456",
"t. c #A26E56",
"y. c #A5665A",
"u. c #AA6759",
"i. c #A56C5B",
"p. c #AD6A5C",
"a. c #B66C5F",
"s. c #A37453",
"d. c #AA7655",
"f. c #A67857",
"g. c #AC7955",
"h. c #A4725B",
"j. c #AB735C",
"k. c #A4795D",
"l. c #AE7B5B",
"z. c #B0765E",
"x. c #B27C5B",
"c. c #867968",
"v. c #9C7464",
"b. c #90716B",
"n. c #857C71",
"m. c #AC6E61",
"M. c #A47563",
"N. c #AB7562",
"B. c #A57A64",
"V. c #AC7C63",
"C. c #AC7C6A",
"Z. c #B17563",
"A. c #B97364",
"S. c #B47C63",
"D. c #BA7C65",
"F. c #B27E6B",
"G. c #BC7E69",
"H. c #C47C6B",
"J. c #B1815D",
"K. c #8C8378",
"L. c #958A7A",
"P. c #9D907E",
"I. c #AF8366",
"U. c #B38263",
"Y. c #BA8265",
"T. c #B88A66",
"R. c #B3846B",
"E. c #BC846B",
"W. c #B5896A",
"Q. c #BC8C6D",
"!. c #B98773",
"~. c #B68D74",
"^. c #C1846D",
"/. c #C48A6E",
"(. c #CA8A6F",
"). c #C38571",
"_. c #C58C73",
"`. c #CC8C74",
"'. c #CA8F79",
"]. c #C39273",
"[. c #CB9275",
"{. c #CC947B",
"}. c #CB9A7A",
"|. c #D2957C",
" X c #D39C7E",
".X c #D2A17F",
"XX c #787A86",
"oX c #938A82",
"OX c #939090",
"+X c #A59A8B",
"@X c #A79B94",
"#X c #AAA49B",
"$X c #B6A89B",
"%X c #9C9CA4",
"&X c #ADADAF",
"*X c #B7AEA4",
"=X c #B9B4AC",
"-X c #B7B5B6",
";X c #C79B84",
":X c #D39B81",
">X c #D89A83",
",X c #DBA786",
"<X c #CCA395",
"1X c #D4A698",
"2X c #E4AE92",
"3X c #E4B395",
"4X c #D2B6AA",
"5X c #D7B9AB",
"6X c #C4BAB4",
"7X c #E9BEAE",
"8X c #C9C2B7",
"9X c #D9C2B7",
"0X c #BABBC1",
"qX c #C8C7C8",
"wX c #D0CDC8",
"eX c #D1CFCE",
"rX c #D7D6D7",
"tX c #DDDAD5",
"yX c #E6D3CA",
"uX c #E7DBD6",
"iX c #E5E1DD",
"pX c #FFFFFFFF",
"aX c #FFFFFFFF",
"sX c #FFFFFFFF",
"dX c #FFFFFFFF",
"fX c #FFFFFFFF",
"gX c #FFFFFFFF",
"hX c #FFFFFFFF",
"jX c #FFFFFFFF",
"kX c #FFFFFFFF",
"lX c #FFFFFFFF",
"zX c #FFFFFFFF",
"xX c #FFFFFFFF",
"cX c #FFFFFFFF",
/* pixels */
"cXcXcXkXcXcXcXcXcXcXcXcXkXcXcXcXjXcXcXcXcXcXkXxXkXcXcXcXjXjXjXjXjXjXjXjXjXjXjXjXkXkXkXkXkXcXcXcXjXcXjXcXcXcXkXxXxXzXcXzXcXcXcXcX",
"kXxXlXcXzXcXcXkXzXcXlXcXkXcXcXcXcXkXcXcXkXcXxXxXcXxXjXgXaXpXrXwX8XwXiXaXjXjXjXjXkXkXkXcXkXcXkXcXcXcXcXcXkXcXcXcXcXcXxXcXcXxXcXcX",
"cXcXcXxXcXcXcXcXcXxXkXcXxXcXcXxXkXcXkXkXjXcXjXpX=X+X=X#Xn._ X.K.L.L.+X#X$XwXjXjXkXjXkXkXcXcXcXcXcXcXcXcXjXcXkXxXcXcXcXcXcXzXcXcX",
"cXzXcXcXkXkXzXcXcXcXcXcXcXcXcXlXcXkXcXkXjXiXK.X.K.K.X.X.` N _ _ ! ` X.K._ c.+XtXjXjXjXkXcXcXcXcXcXjXcXcXkXcXkXxXkXcXxXzXcXcXkXzX",
"cXcXcXxXzXzXcXkXcXcXzXkXzXxXcXcXjXjXjXkXwXK.P ! K L m k m z m _ ! m m N ! L ] K.+XiXjXkXkXkXjXjXcXcXcXcXkXcXcXxXkXxXcXkXxXhXcXcX",
"cXxXxXcXcXkXcXcXxXhXxXcXcXcXcXcXjXjXjX-X_ m n r r r 0 r z e : < k k k n P N ! ' K.P.tXgXkXkXkXjXcXcXcXcXcXxXcXkXcXcXcXkXcXcXcXkX",
"zXcXzXcXzXcXcXcXcXkXcXkXcXzXcXxXjXjX*X_ n 1 0 0 z < r 0 0 : 0 : = : e e 0 k _ ' 4.L.$XtXjXkXjXjXcXcXcXcXcXkXxXcXxXkXzXcXcXcXcXcX",
"cXkXcXcXcXcXcXcXxXzXcXcXcXkXcXcXjX=Xn.! n e 0 z e : 0 = + e : o X = : : < q n ' c.K.P.*XuXkXjXjXkXcXcXcXxXcXxXcXlXcXcXcXcXcXcXjX",
"cXcXxXkXcXcXkXcXcXxXcXzXjXcXcXcXwXoXX.P K n n k r : ; o % & o X X X X = & ; k Q Q c.K.P.#XiXjXjXcXzXcXzXcXcXcXcXcXcXzXcXcXkXcXcX",
"xXhXcXcXcXzXcXzXkXkXxXzXcXxXxXdXoXX.P _ ! K m N r ; o = o $ o   X X   = : 0 h N N Q ' c.L.*XdXjXcXzXxXcXcXcXcXcXkXcXcXcXcXzXcXcX",
"cXcXcXcXcXcXcXcXcXcXkXcXcXlXxX=X! P K L L K K s 0 ; & X   X o             & < e n m V _ ] L.iXjXcXcXcXcXxXcXcXjXcXcXcXcXcXcXcXcX",
"cXcXzXxXkXcXcXxXcXxXcXcXxXlXfXn.P P m s m K m e 0 = o   o - - % = = = X . o * ; ; r N V B K.8XjXcXcXkXkXcXcXcXcXzXcXcXcXcXcXzXkX",
"cXcXkXzXxXcXcXcXcXkXcXcXcXcXiX) L n r 0 n n e r 0 1 1 1 g j j c j l l f f 1 % % & ; r B L ' P.gXcXcXcXcXcXcXcXxXcXxXcXcXxXcXxXcX",
"zXcXcXkXcXcXcXcXcXcXxXcXzXxXtX` m z : < e n g j l b C C W W W ~ ( Z #.Z Z b f * o & < N ! n ' tXkXcXcXkXkXcXkXcXzXcXkXcXcXcXcXcX",
"kXcXcXzXcXzXkXcXcXxXcXkXcXxXaXK.n r < r k M M M V Z Z #.&.3.9.9.7.:.,.:.:.#.C l 1 o . 0 N n Q =XcXcXcXcXxXcXcXcXzXcXcXcXlXcXcXcX",
"cXxXcXkXcXkXcXcXcXzXcXzXxXxXgXoXK n 0 1 N V Z C #.:.:.:.0.0.v.v.q.w.0.7.>.>.>.Z b * . o n n B *XjXcXcXcXhXcXcXcXcXcXcXcXjXkXcXcX",
"xXcXcXcXzXcXkXcXxXkXcXcXcXcXgXOXP r < > V Z Z ;.:.5.5.0.w.M.C.v.M.0.w.8.t.1.<.:.Z j % . e j L #XcXcXkXxXcXcXjXcXcXxXcXcXcXcXcXcX",
"zXcXjXcXxXkXcXcXcXcXcXgXcXcXgX@XQ e , 1 V ( :.>.8.8.q.h.B.C.F.M.h.h.i.h.s.w.t.1.#.C > % 0 c x n.cXkXcXcXcXkXcXxXkXcXcXcXcXzXcXcX",
"cXkXcXcXcXcXcXzXkXcXcXcXcXcXcX#Xm 0 & 1 Z >.1.e.k.t.0.M.C.C.R.C.N.N.N.h.t.s.s.h.2.$.j * < 0 0 ) hXcXkXkXcXcXcXkXcXxXxXcXcXcXkXkX",
"cXlXcXzXcXjXcXcXcXcXcXcXxXcXcX&Xz : o q / 1.8.k.V.B.N.F.M.F.!.!.B.C.F.h.t.0.h.h.h.s./ g > 0 0 P gXcXcXzXzXcXcXcXcXcXcXcXcXcXcXcX",
"kXzXcXcXcXcXcXzXjXcXcXkXcXkXgX-Xz 0 % j ;.8.w.w.3.( 9.M.C.!.!.!.M.9.b./ W W ~ 3.3.w.8.Z > 0 q z aXcXcXcXkXkXkXcXzXcXcXcXcXcXzXcX",
"cXlXcXcXcXcXcXxXcXkXcXzXcXcXkXrXm , o b <.( ~ N x c E ( 9.F.!.!.9.^ ~ B M c M B B ( s.q.l , e P gXcXcXcXcXcXcXxXkXcXcXkXcXcXcXcX",
"cXcXcXxXcXcXcXcXhXcXcXcXcXkXcXgXR : * V ;.B B Q W ~ ~ ^ &.m.!.F.0./ ^ $./ :.4.3.( ( 7.k.#.: x X.gXcXcXxXcXcXcXhXcXzXxXcXcXcXcXcX",
"cXzXcXzXlXzXcXcXcXcXcXkXcXkXxXxXK.0 ; ( 3.;.q.w.0.7.5.5.&.M.C.S.h.5.6.5.7.w.k.I.J.w.k.I.<.< h #XcXcXcXcXhXkXcXcXcXcXcXcXxXcXcXcX",
"zXcXcXkXcXxXcXjXcXcXcXlXcXcXkXcX-Xs q w.J.k.k.k.w.0.7.7.5.t.j.z.j.8.8.8.0.8.j.V.I.I.V.I.q.1 j $XcXzXxXcXcXcXxXcXcXkXcXzXcXzXcXcX",
"cXcXcXxXcXcXcXkXcXcXcXkXcXcXxXcXpXm q W.I.I.k.B.M.7.0.7.,.8.p.l.j.t.5.,.$.W 3.h.j.I.I.I.k.g n <XzXcXzXcXzXcXxXzXcXcXcXxXkXcXzXcX",
"kXcXkXcXcXcXcXcXcXcXxXcXcXcXcXcXgX` c Q.Q.J.q.W E w c $.5.5.V.E.S.6.,.^ h 8 ' C 1.V.W.W.I.M ~ <XcXcXcXcXkXkXcXkXhXcXzXxXcXxXcXcX",
"cXcXcXkXcXhXcXkXxXcXcXzXxXcXkXkXhX@XN ].}.J.( ( 4.h E / %.8.E.[.E.8.$.3.~ c 9.5.<.I.W.W.I.( 4.5XcXcXcXcXcXcXcXcXxXcXzXcXcXkXcXcX",
"cXlXjXlXkXcXzXzXcXzXcXcXcXcXcXxXhX5XQ ].:X}.T.W.C.v.v.6.7.V.[.,X/.j.5.9.9.9.N.F.I.W.Q.W.W.7.%.4XcXxXzXcXcXcXcXcXcXcXcXcXcXcXcXxX",
"cXkXcXcXcXcXkXcXcXxXzXkXkXcXcXcXcXsX4.}.3X,X}.I.w.6.6.0.V.E..X3X XD.V.i.6.0.i.S.Q.Q.Q.Q.Q.l.,.4XcXcXxXkXcXxXcXxXjXcXhXcXcXcXcXcX",
"zXcXcXcXcXcXcXkXcXcXcXcXcXcXcXcXcXgXB.].,X3X.XT.V.M.N.F.^.(.,X3X X/.^.S.j.N.l.R.Q._.Q.].~.Q.y.5XcXkXcXcXzXcXkXcXzXcXxXcXcXxXcXxX",
"cXxXcXcXcXkXxXcXxXkXcXcXxXzXcXkXzXzX;X]..X,X,X.X[.E.Q.Q.Q.[.,X3X>X[._.).E.R.E.)._.[.Q.Q.Q.f.N.yXcXzXxXcXcXxXcXcXcXcXcXcXkXcXxXcX",
"cXcXcXhXcXcXcXcXcXcXcXcXkXcXcXzXcXkX9X;X X X,X,X,X{.].)./.`.,X2X>X[./.H./.].'.'._./.Q.T.Q.d.Q.dXcXcXcXcXcXcXkXxXjXzXcXzXcXcXcXcX",
"cXxXxXcXcXcXcXcXcXcXzXzXkXxXkXcXkXkXuX].T.[. X,X,X,X}./.Y.{.2X2X,X[.^.^.^.].'.'._._.^.Y.U.Y.9XkXcXcXcXcXkXcXcXcXcXcXxXcXcXxXcXcX",
"cXzXcXxXcXcXcXxXcXxXkXcXxXcXcXcXkXcXgX5XQ./. X|. X{.`.^.^.,X2X2X>X|.^.D.^.'._._./.^.Y.U.T.Y.yXkXkXcXcXcXjXcXkXxXcXcXcXcXcXzXcXcX",
"cXzXcXcXkXkXzXcXcXcXcXxXcXcXxXlXcXkXkXyXQ.U.D._._.^.D.x. X,X,X,X>X X`.^.Y.^.^.E.^.Y.x.J.;X9XgXkXcXcXcXcXhXcXkXxXcXcXxXzXcXcXkXzX",
"cXcXkXcXcXzXcXkXcXcXzXcXcXcXcXcXcXcXcXgX6XB.h.l.D.S.j.x.[.[.[.'.`.(.`.^.E.D.Y.^.Y.x.x.Q.dXgXcXcXcXcXcXcXhXcXcXxXkXcXcXkXxXzXcXcX",
"kXxXxXcXcXkXcXzXxXcXxXcXxXcXcXcXkXcXkXkXgX<X7.h.j.j.V.`./.%.,.j.l.t.p.D._.Y.D.x.D.S.U.;XzXcXcXcXcXcXcXcXcXcXcXhXcXcXzXkXcXkXcXkX",
"zXzXcXcXzXcXcXcXzXkXcXkXcXzXcXxXcXhXcXzXhXuXq.1.s.j.E. X Xh.6.6.r.j.Z.Y._.^.D.a.x.Y.J.5XcXzXcXcXcXcXcXcXcXhXcXcXjXcXzXcXcXcXcXcX",
"cXkXkXcXcXkXcXcXxXzXcXcXcXkXcXcXhXcXcXcXhXhX$X5.8.h.U.}.;X_.N.N.Z.S.F.F.E.V.g.x.x.x.T.uXcXkXcXcXkXcXcXcXcXcXxXcXlXcXcXcXcXcXcXjX",
"cXcXhXhXhXkXkXkXcXcXcXcXxXcXcXcXcXcXcXzXcXcXpXB.1.8.s.Q.[.).Z.m.m.Z.D.G.D.d.j.x.z.x.U.wXcXcXcXcXcXcXcXzXcXcXxXcXcXcXcXcXcXkXcXcX",
"dXgXhXhXkXkXkXkXcXcXxXcXcXxXkXcXcXzXhXhXcXhXkX6Xq.8.<.$.C $.6.0.0.h.9.^ #.>.g.z.x.x.Q.Q R rXzXcXcXzXcXcXcXzXcXcXcXkXcXcXcXzXcXcX",
"7XuXgXhXzXzXkXzXcXcXcXcXcXcXcXcXcXcXcXhXjXjXgXwXv.8.1.,.$.v C 9.&.C v @.a.g.g.z.g.f.W.q.K.R %XeXxXcXcXcXxXcXcXxXcXxXzXcXcXcXcXcX",
">X1XsXgXkXzXzXzXcXxXcXcXxXcXcXxXcXcXcXgXeX%X..G G :.>.8.r.%.@.@.@.-.p.z.x.x.g.g.f.f.T.T.b.) [ ..%XrXgXkXcXcXcXcXcXcXcXcXkXcXzXkX",
"H.H.uXzXzXcXcXcXcXcXcXcXxXxXlXlXlXpX-X+.U d i i u N ,.,.1.8.-.-.-.u.p.x.x.x.x.d.d.g.J.J.q.) y u A } OXqXfXzXzXxXcXxXcXcXxXcXxXcX",
"a.H.yXgXcXcXcXcXcXcXxXcXlXxXxXrX&XXXo.Y d u y u 9 t V ,.1.1.5.,.=.u.g.z.x.x.g.e.d.g.J.J.4.R t 3 9 u D [ XX0XfXxXzXcXkXcXcXcXcXcX",
"A.A.yXgXcXkXcXcXcXcXlXlXcXpX%XXXO. .} Y d u u w 9 9 k #.1.8.2.t.u.z.x.x.x.x.e.e.g.J.J.J.' F 6 2 4 4 6 A U } XX0XfXcXgXzXzXcXcXgX",
"a.A.yXhXcXcXcXcXcXcXxXfX&XXX . .O.O.O.[ d u u t 9 9 8 Z :.8.s.d.j.x.x.x.g.e.e.e.g.J.g.f.E 4 # @ 4 t i A A S F U ..OXqXhXcXcXkXpX",
"A.H.9XdXzXcXcXcXcXkXgX%XXXO. . . . . .Y a t u t t 9 6 B ;.;.<.2.j.f.f.2.e.g.g.g.x.J.g.<.9 2 @ @ 3 3 4 t t A A 4.>XoXo.%XpXzXzXyX",
"G.G.5XsXxXkXhXcXxXgX%XO. .} } { { [ Y S u 9 y t 6 4 7 c ;.( ( ;.>.<.<.2.d.g.g.l.x.x.f.B 5 @ O @ 2 2 4 9 i S G H.H.a.|  .XXeXfX<X",
"D.H.1XpXcXcXzXlXgX%XO.} { { [ Y Y U F A i t y t 9 9 4 r ;.<.Z >.2.2.e.d.d.g.g.x.J.g.%.8 @ @ O 2 2 2 3 9 9 i J p.-.y.T Y } XX6Xa.",
"D.D.<XpXzXxXxXxX-X[ [ [ { { [ Y U H A a A y y t t 9 9 9 ( 2.<.;.;.>.2.e.d.d.g.l.J.f.p @ @ @ @ 2 2 3 3 4 9 t x =.-.-.) G F [ b.-.",
"^.^.1XsXcXcXcXaX .F A S Y [ Y Y I S a a A u t t t y 9 4 s <.7.;.;.>.2.e.f.f.g.g.2.r @ @ @ @ @ 2 2 2 3 3 6 6 u *.*.=.E i A G 9.p.",
"D.E.1XpXcXcXlXOXI S A t I [ Y I F a i a A a t t t 9 9 6 4 s ( ;.;.;.>.2.s.d.f.;.w @ @ @ @ @ @ @ 2 2 2 3 3 3 t =.*.*.^ 6 6 i m.-.",
"D.G.1XsXcXcX&XU S F S A F Y I I S i i A A A y t 9 9 9 6 $ @ 4 : k n b M c h 8 @ @ @ @ @ @ 2 @ 2 2 2 2 3 3 3 6 =.r.y.9.6 5 x m.=.",
"A.D.;XuXzXrX[ S A S S A A F F F A i a A A a u t y 9 t 6 7 # @ + + + + + + + + @ @ @ @ @ @ @ 2 2 2 2 2 2 3 3 6 *.=.y.*.p 6 K y.=.",
"H.D.^.uXpX+.S A A A F i i S S S a a a a S A a t 9 9 9 6 6 6 # # + + + + @ + @ @ 2 2 @ @ @ 2 2 2 2 2 3 5 2 2 5 $.6.6.=.p 9 &.y.r.",
").H.D.wXXXH A A A A S i u S S A a u a a A S a 9 9 t 9 9 6 4 5 4 $ + + @ @ @ $ $ 2 @ @ @ @ 2 2 2 2 2 3 2 2 5 6 &.p.p.-.x w p.m.N.",
"H.H.D.b.[ S A A A A S A u A A A a u a a A A a t 9 9 9 9 6 6 4 6 4 $ # @ # @ # # @ @ @ @ @ 2 2 2 5 3 2 2 2 2 8 ^ y.p.r.K j r.m.F.",
"H.'./.' G d i A A S S A u i A i a u u a a a u t 6 6 6 9 6 6 4 4 4 $ # @ @ @ @ # @ @ @ @ @ @ @ 2 5 3 2 2 2 5 5 E =.*.*.m.=.*.j.F.",
">X`.).0.z A A A S S S A t i A A a u a u a u u y 6 6 6 6 9 6 4 4 4 5 2 $ # @ # @ @ @ @ @ @ @ 2 2 3 3 2 2 2 4 7 &.m.m.-.=.=.-.F.E.",
"`.`.{.).K u i A S F F A t u i i u u u u u u u y 9 6 6 6 6 6 6 6 6 6 4 2 # # @ @ @ @ @ @ @ @ @ 2 3 3 2 2 3 4 6 &.m.-.=.*.m.'.:X'.",
"(. X:X_.R d t i A A S A u y i i a u u u u u u u 9 6 6 6 6 6 6 4 5 5 4 $ @ @ @ @ O @ @ @ @ @ @ 2 3 2 2 3 4 5 6 F.H.:XH.-.:X:X;X`.",
"{.:X X].! d t t 6 O @ t t t u u u u u u u u y y t 6 5 6 6 6 6 5 5 4 $ @ + @ @ + @ + @ @ + + 2 2 2 2 2 5 7 &.F.`.:X`.|.;X:X{.{.)."
};
